<svg id="Capa_1" data-name="Capa 1" xmlns="http://www.w3.org/2000/svg" viewBox="0 0 59 26"><defs><style>.cls-1{isolation:isolate;}.cls-2{fill:#fff;}</style></defs><title>Mesa de trabajo 1</title><g class="cls-1"><path class="cls-2" d="M6.3,2.7V9.8h7.5V2.7h4.1V21.3H13.8v-8H6.3v8H2.2V2.7Z"/><path class="cls-2" d="M25.5,2.7V9.8H33V2.7h4.1V21.3H33v-8H25.5v8H21.4V2.7Z"/><path class="cls-2" d="M48.7,2.7a8.81,8.81,0,0,1,3.3.6A9.48,9.48,0,0,1,54.7,5a8.41,8.41,0,0,1,1.8,2.9,10.2,10.2,0,0,1,.6,4,13.8,13.8,0,0,1-.5,3.7,8.7,8.7,0,0,1-1.6,3,7.27,7.27,0,0,1-2.6,2,8.43,8.43,0,0,1-3.7.7h-8V2.7Zm-.3,15.1a4.67,4.67,0,0,0,1.7-.3,6,6,0,0,0,1.5-.9,4,4,0,0,0,1-1.7,6.77,6.77,0,0,0,.4-2.6,9.52,9.52,0,0,0-.3-2.5,4.8,4.8,0,0,0-.9-1.9,4.34,4.34,0,0,0-1.7-1.2,6.25,6.25,0,0,0-2.5-.4H44.7V18h3.7Z"/></g></svg>