<?xml version="1.0" encoding="utf-8"?>
<!-- Generator: Adobe Illustrator 21.0.0, SVG Export Plug-In . SVG Version: 6.00 Build 0)  -->
<svg version="1.1" id="Capa_1" xmlns="http://www.w3.org/2000/svg" xmlns:xlink="http://www.w3.org/1999/xlink" x="0px" y="0px"
	 viewBox="0 0 59 26" style="enable-background:new 0 0 59 26;" xml:space="preserve">
<style type="text/css">
	.st0{fill:#FFFFFF;}
</style>
<path class="st0" d="M0.7,0.4V20h12.8v-3.4H4.4V0.4H0.7z"/>
<path class="st0" d="M13.9,12.9c0,4.3,3,7.4,7.1,7.4c3.7,0,5.3-2,6.3-3.4l-3-1.7c-0.5,1-1.4,2.1-3.3,2.1c-2,0-3.3-1.4-3.4-3.2h10.3
	v-1.4c0-4.2-2.8-7-6.9-7C16.8,5.7,13.9,8.7,13.9,12.9z M17.5,11.6c0.2-1.7,1.4-2.8,3.4-2.8c1.8,0,3.1,1.1,3.2,2.8H17.5z"/>
<path class="st0" d="M28.4,9.3l2.9,1.8c0.9-1.5,2-2.4,3.9-2.4c1.9,0,2.9,1,2.9,2.4v0.3L32.4,12c-2.6,0.3-4.3,1.8-4.3,4
	c0,2.7,2.1,4.3,5.2,4.3c3,0,4-1.5,4.4-2.1H38V20h3.5v-8.9c0-3.2-2.5-5.4-6.2-5.4C31.9,5.7,30,7.2,28.4,9.3z M31.8,15.9
	c0-0.8,0.6-1.3,2-1.5l4.3-0.5v0.2c0,1.9-1.4,3.4-3.8,3.4C32.6,17.5,31.8,16.8,31.8,15.9z"/>
<path class="st0" d="M43.7,25.6h3.5V18h0.3c0.7,1.2,2,2.4,4.4,2.4c3.5,0,6.4-3.1,6.4-7.3c0-4.3-2.9-7.3-6.4-7.3
	c-2.5,0-3.7,1.2-4.4,2.4h-0.4v-2h-3.5V25.6z M51,17.3c-2.2,0-3.8-1.6-3.8-4.2s1.6-4.2,3.8-4.2c2.1,0,3.8,1.5,3.8,4.2
	S53.2,17.3,51,17.3z"/>
</svg>
