<?xml version="1.0" encoding="utf-8"?>
<!-- Generator: Adobe Illustrator 21.0.0, SVG Export Plug-In . SVG Version: 6.00 Build 0)  -->
<svg version="1.1" id="Capa_1" xmlns="http://www.w3.org/2000/svg" xmlns:xlink="http://www.w3.org/1999/xlink" x="0px" y="0px"
	 viewBox="0 0 24 24" style="enable-background:new 0 0 24 24;" xml:space="preserve">
<style type="text/css">
	.st0{fill:none;}
	.st1{fill:#FFFFFF;}
</style>
<title>Icon For Arrow-up</title>
<g>
	<polygon class="st0" points="0,0 24,0 24,24 0,24 	"/>
	<path class="st1" d="M12,5L12,5c0.6,0,1,0.4,1,1v12c0,0.6-0.4,1-1,1l0,0c-0.6,0-1-0.4-1-1V6C11,5.4,11.4,5,12,5z"/>
	<path class="st1" d="M6.7,12.7c-0.4,0.4-1,0.4-1.4,0c-0.4-0.4-0.4-1,0-1.4l6-6c0.4-0.4,1-0.4,1.4,0l6,5.5c0.4,0.4,0.4,1,0.1,1.4
		c-0.4,0.4-1,0.4-1.4,0.1L12,7.4L6.7,12.7z"/>
</g>
</svg>
