<?xml version="1.0" encoding="utf-8"?>
<!-- Generator: Adobe Illustrator 21.0.0, SVG Export Plug-In . SVG Version: 6.00 Build 0)  -->
<svg version="1.1" id="Layer_1" xmlns="http://www.w3.org/2000/svg" xmlns:xlink="http://www.w3.org/1999/xlink" x="0px" y="0px"
	 viewBox="0 0 504.4 504.4" style="enable-background:new 0 0 504.4 504.4;" xml:space="preserve">
<style type="text/css">
	.st0{fill:#FFFFFF;}
</style>
<g>
	<g>
		<path class="st0" d="M195.2,184.2H188h-48v44h51.6c9.2,0,17.2-2.4,17.2-23.6S195.2,184.2,195.2,184.2z"/>
	</g>
</g>
<g>
	<g>
		<path class="st0" d="M195.2,260.2H140v56h48.4c0.8,0,2,0,3.6,0c8,0,23.2-3.2,23.2-27.2C215.6,260.6,195.2,260.2,195.2,260.2z"/>
	</g>
</g>
<g>
	<path class="st0" d="M0,126.6v251.6c0,3.4,0.1,6.7,0.4,10V116.6C0.1,119.9,0,123.2,0,126.6z"/>
	<path class="st0" d="M471.2,0.2h-93.6H126.4H33.6C15.3,0.2,0.4,15.1,0.4,33.4v83.2v271.6V471c0,18.3,14.9,33.2,33.2,33.2h92.8H378
		h93.2c18.3,0,33.2-14.9,33.2-33.2v-93.2v0V126.6V33.4C504.4,15.1,489.5,0.2,471.2,0.2z M296,160.2h84v20h-84V160.2z M256.8,291.8
		c0,62.4-61.6,64.4-61.6,64.4h-56.8h-1.6H96v-208h40.4h1.6h56.8c30.8,0,55.2,17.6,55.2,54.4c0,36.8-29.6,38.8-29.6,38.8
		C259.6,241,256.8,291.8,256.8,291.8z M339.6,357.8c-80,0-74.8-78.8-74.8-78.8s0-79.2,74.8-79.2c78.8-0.4,68,88.4,68,88.4H306.4
		c0,40,34.4,36.8,34.4,36.8c32.4,0,31.2-20.8,31.2-20.8h34.4C406.4,360.2,339.6,357.8,339.6,357.8z"/>
</g>
<g>
	<g>
		<path class="st0" d="M340.4,228.6c-30,0-34.4,31.6-34.4,31.6h64C370,260.2,370.4,228.6,340.4,228.6z"/>
	</g>
</g>
</svg>
