<?xml version="1.0" encoding="utf-8"?>
<!-- Generator: Adobe Illustrator 21.0.0, SVG Export Plug-In . SVG Version: 6.00 Build 0)  -->
<svg version="1.1" id="Layer_1" xmlns="http://www.w3.org/2000/svg" xmlns:xlink="http://www.w3.org/1999/xlink" x="0px" y="0px"
	 viewBox="0 0 504.4 504.4" style="enable-background:new 0 0 504.4 504.4;" xml:space="preserve">
<g>
	<g>
		<path d="M195.2,184.2H188h-48v44h51.6c9.2,0,17.2-2.4,17.2-23.6S195.2,184.2,195.2,184.2z"/>
	</g>
</g>
<g>
	<g>
		<path d="M195.2,260.2H140v56h48.4c0.8,0,2,0,3.6,0c8,0,23.2-3.2,23.2-27.2C215.6,260.6,195.2,260.2,195.2,260.2z"/>
	</g>
</g>
<g>
	<path d="M378,504.2h93.2c18.3,0,33.2-14.9,33.2-33.2v-93.2C504.4,447.4,447.6,504.2,378,504.2z"/>
	<path d="M0.4,388.2V471c0,18.3,14.9,33.2,33.2,33.2h92.8C60.2,504.2,5.5,452.8,0.4,388.2z"/>
	<path d="M126.4,0.2H33.6C15.3,0.2,0.4,15.1,0.4,33.4v83.2C5.5,51.6,60.2,0.2,126.4,0.2z"/>
	<path d="M471.2,0.2h-93.6C447.2,0.2,504,57,504.4,126.6V33.4C504.4,15.1,489.5,0.2,471.2,0.2z"/>
	<path d="M0,126.6v251.6c0,3.4,0.1,6.7,0.4,10V116.6C0.1,119.9,0,123.2,0,126.6z"/>
	<path d="M377.6,0.2H126.4C60.2,0.2,5.5,51.6,0.4,116.6v271.6c5.1,64.6,59.8,116,126,116H378c69.6,0,126.4-56.8,126.4-126.4V126.6
		C504,57,447.2,0.2,377.6,0.2z M296,160.2h84v20h-84V160.2z M256.8,291.8c0,62.4-61.6,64.4-61.6,64.4h-56.8h-1.6H96v-208h40.4h1.6
		h56.8c30.8,0,55.2,17.6,55.2,54.4c0,36.8-29.6,38.8-29.6,38.8C259.6,241,256.8,291.8,256.8,291.8z M407.6,288.2H306.4
		c0,40,34.4,36.8,34.4,36.8c32.4,0,31.2-20.8,31.2-20.8h34.4c0,56-66.8,53.6-66.8,53.6c-80,0-74.8-78.8-74.8-78.8s0-79.2,74.8-79.2
		C418.4,199.4,407.6,288.2,407.6,288.2z"/>
</g>
<g>
	<g>
		<path d="M340.4,228.6c-30,0-34.4,31.6-34.4,31.6h64C370,260.2,370.4,228.6,340.4,228.6z"/>
	</g>
</g>
</svg>
